PathFileType	4	(X/Y/Z)	D:\TRACE\v60_Jaco2_6-2-23\BothDRS_Motion2_2-v60.trc
DataRate	CameraRate	NumFrames	NumMarkers	Units	OrigDataRate	OrigDataStartFrame	OrigNumFrames
100.00	100.00	      38	9	mm	100.00	3751	      7500
Frame#	Time	front left toe			Front right toe			aft left toe			aft right toe			Arm			FL body			FR body			AL Body			AR Body			
		X1	Y1	Z1	X2	Y2	Z2	X3	Y3	Z3	X4	Y4	Z4	X5	Y5	Z5	X6	Y6	Z6	X7	Y7	Z7	X8	Y8	Z8	X9	Y9	Z9	

3751	37.500	-119.61317	29.48948	-262.83337	152.95708	30.57102	-355.37158	-198.40948	4.71824	290.21017	286.33954	31.21100	355.99994	115.98882	1094.84302	-719.48260	-59.73872	576.91956	-421.61188	100.19534	574.36005	-428.40829	-20.58676	569.39038	523.67242	135.17007	560.69318	517.61499	
3752	37.510	-119.63170	30.91358	-261.27109	153.81969	31.18665	-354.78528	-197.99187	4.73223	290.66022	290.01349	24.33335	359.21820	117.68685	1095.84009	-714.82343	-55.81889	577.89288	-417.98083	104.16101	575.30713	-424.48169	-16.37181	567.41675	527.21991	138.10497	559.31281	521.19055	
3753	37.520	-118.54934	32.24831	-261.62750	154.53923	31.83948	-354.28595	-196.75369	4.19855	290.95490	293.45682	17.40993	362.41141	119.23167	1097.29358	-710.09125	-52.50415	579.05872	-414.21896	107.67967	576.83539	-421.02972	-13.70463	566.27588	531.33221	142.36581	557.72351	524.95721	
3754	37.530	-117.50059	32.91427	-260.02316	155.17003	32.61817	-353.89618	-195.89261	3.97812	291.29437	296.49597	6.63175	364.05832	121.82594	1099.64612	-704.64349	-49.37144	579.82690	-410.22675	111.11529	577.81781	-417.28476	-10.36753	565.37006	535.56335	145.91411	556.75232	528.64734	
3755	37.540	-117.24855	33.67644	-259.95657	156.09824	33.32074	-353.53287	-195.07401	3.87161	291.86343	298.36478	1.99035	361.08890	124.53754	1102.08606	-698.89429	-45.32798	580.25885	-405.99713	114.09089	578.60327	-412.96011	-6.71857	564.77948	539.80951	149.13347	557.09003	532.37683	
3756	37.550	-116.68056	33.80550	-259.40048	156.96399	34.45669	-352.27078	-193.88255	4.07716	292.25873	299.61957	2.65558	364.04962	128.43687	1104.73145	-693.32428	-42.17893	579.94855	-402.18732	117.91561	579.11719	-408.78699	-3.15900	565.57800	543.17499	151.18338	558.80573	536.51007	
3757	37.560	-114.09294	34.14490	-255.79973	159.47905	38.84180	-351.32135	-189.48439	6.80754	293.40677	299.78549	1.54056	367.44919	131.80917	1107.05615	-688.96552	-38.20622	580.65094	-398.22192	121.39764	580.55554	-405.84476	-0.11031	565.74017	546.90070	155.59601	559.06641	540.15869	
3758	37.570	-112.74260	35.35259	-256.01556	161.17206	43.80410	-346.41403	-183.40106	10.99666	297.38766	300.13254	-0.29185	364.99759	134.96895	1108.62842	-685.24512	-34.97746	582.72009	-394.83261	125.12793	581.91180	-401.58792	2.42063	564.63025	550.91931	158.78070	557.94141	544.41461	
3759	37.580	-112.43562	36.16990	-254.68658	162.93445	49.31895	-340.43643	-176.40721	12.92192	302.00363	301.04324	-1.02967	367.04459	137.57011	1109.72729	-681.13629	-34.10374	585.36145	-391.10501	127.88035	583.91742	-398.67145	4.88564	562.93921	553.73322	161.46266	556.65686	547.58917	
3760	37.590	-112.21418	36.45325	-254.36699	166.15697	61.30610	-336.64874	-169.84245	23.09467	303.99792	301.62158	-1.90900	367.05573	139.20981	1110.83740	-676.29175	-31.74289	586.48285	-388.24527	130.74657	585.68457	-395.44424	7.59381	561.53058	557.26697	164.20670	555.47235	550.50970	
3761	37.600	-112.25555	37.07751	-254.55615	170.87648	72.52280	-332.55057	-164.46867	32.13877	305.45520	301.80511	-3.09551	366.85883	141.77742	1112.84546	-671.80786	-28.08886	586.88306	-385.70297	133.27023	586.37933	-392.83936	9.94595	559.96149	559.13519	166.88843	553.91870	553.22626	
3762	37.610	-112.32829	37.27218	-253.80724	175.68234	86.13914	-329.37784	-159.94742	43.70576	308.69092	302.20764	-4.21210	367.88242	144.20599	1115.63794	-667.61731	-24.28249	587.19568	-383.32706	135.47316	586.79034	-390.10449	12.28954	558.40881	561.66968	169.88753	552.38727	556.18622	
3763	37.620	-112.00114	37.91586	-253.81233	181.39850	100.03540	-325.27200	-159.22391	58.60111	311.93204	302.49261	-4.58271	367.93527	146.88332	1118.14014	-663.63843	-22.57276	588.35474	-381.34406	137.83818	587.95721	-388.58328	15.37021	556.49036	564.00885	171.89468	550.44788	558.07452	
3764	37.630	-112.19483	38.49462	-253.33394	187.46909	113.86229	-319.57364	-156.30838	70.35207	318.03113	302.76733	-5.01230	368.37097	149.89659	1120.08936	-659.81854	-20.57456	589.10150	-379.06180	139.87448	588.86035	-385.90692	18.23224	554.21899	565.86316	174.79099	548.80896	561.66168	
3765	37.640	-112.07890	38.63061	-253.11398	195.25500	126.41771	-313.19312	-152.90694	82.41547	325.17047	302.49863	-6.17655	368.44397	152.25517	1121.31299	-656.06305	-18.86694	589.86053	-376.78641	141.61046	589.49811	-383.61981	20.00536	552.83942	567.91888	176.24786	546.94110	562.87061	
3766	37.650	-111.80240	38.98751	-252.64340	202.87663	138.07939	-306.58411	-147.87830	93.54804	331.45688	302.63809	-6.64226	368.70728	153.90176	1122.18726	-652.81274	-16.41768	590.22577	-374.15906	142.89038	589.58759	-381.14221	22.35194	551.46039	569.71838	178.08589	544.91968	564.60156	
3767	37.660	-111.72716	39.27927	-252.40353	210.07840	148.65431	-300.11868	-142.48477	103.21556	337.90680	302.95578	-7.58349	368.92346	156.70323	1122.89355	-649.69659	-15.63254	591.34308	-372.65237	144.75673	589.86176	-379.22662	23.22921	549.71729	571.79108	179.75375	543.09937	566.53033	
3768	37.670	-111.75243	39.94332	-251.98836	216.36957	158.16975	-293.64728	-136.42470	111.20975	343.76660	303.02524	-7.98747	369.17508	158.72014	1123.69067	-647.25812	-13.91427	592.04193	-370.60825	146.61311	590.57220	-377.41763	25.11662	548.66821	573.77710	181.61012	541.78149	568.54163	
3769	37.680	-111.68405	40.35715	-251.70279	221.31839	164.74405	-287.12808	-132.13177	118.21934	349.45673	303.10184	-8.62719	369.46823	161.45049	1124.09387	-644.21216	-12.40753	592.96136	-368.53119	147.97789	590.99658	-375.47565	26.54966	547.37738	575.62225	183.41621	540.62469	570.39105	
3770	37.690	-111.82275	40.92540	-251.32439	225.31490	168.43741	-280.57516	-128.64435	123.06363	354.66745	303.16702	-9.19789	369.96161	163.69545	1124.37061	-641.96417	-11.17331	592.94067	-366.77380	149.13092	591.14539	-373.65057	28.24779	546.48199	577.40674	184.80399	539.43524	572.27777	
3771	37.700	-112.12912	41.58620	-250.93724	230.69421	169.12755	-273.67331	-125.54525	124.80906	360.30502	302.80615	-9.67082	370.24622	166.35336	1124.82495	-639.04285	-9.81490	593.37592	-364.92929	150.47031	591.39941	-371.82352	29.99217	545.26672	579.61871	186.36420	538.23773	574.11328	
3772	37.710	-112.16151	41.73205	-250.76877	236.07521	166.79265	-267.06281	-122.23449	122.87765	366.44815	302.83826	-10.44613	370.64047	168.07074	1125.20764	-636.75098	-8.93904	593.66742	-363.15692	151.24277	591.09387	-369.73206	30.96229	544.81439	581.07037	187.84756	537.03302	575.79218	
3773	37.720	-112.36810	42.02829	-250.45383	241.95117	162.15215	-260.34244	-118.54913	118.40121	372.99408	302.37473	-11.23613	370.66440	170.21515	1125.63989	-634.79291	-7.93480	593.91278	-361.36978	152.70715	590.93738	-368.28070	32.17550	544.11578	582.65063	189.00003	536.12549	577.61957	
3774	37.730	-112.95106	42.63826	-250.23138	247.48070	156.51709	-253.85156	-114.50449	113.29408	379.02118	302.20932	-11.53889	370.81274	171.73412	1126.02063	-632.67456	-6.80905	594.20447	-359.73349	153.43286	591.22382	-366.90393	33.12375	543.62805	584.33649	190.44482	535.28168	579.03265	
3775	37.740	-113.27109	43.08216	-250.11430	252.49266	149.85980	-247.54044	-110.40212	107.54955	385.19357	302.11075	-11.69481	370.96280	173.47722	1126.13452	-630.75012	-5.79238	594.68463	-358.12485	154.08720	591.30865	-365.61548	34.57902	542.85760	585.75354	191.46318	534.50549	580.47241	
3776	37.750	-113.52287	43.51453	-249.68466	256.82449	142.00984	-242.15424	-105.18279	99.49287	391.50650	301.83206	-12.14677	371.32260	175.09790	1126.19775	-629.16132	-5.17686	595.21722	-356.77216	155.18149	591.35522	-363.91434	35.97194	542.07678	587.42261	192.72324	533.97192	582.92169	
3777	37.760	-113.72974	43.68317	-249.35822	261.07071	133.07634	-237.17230	-102.24644	91.70552	396.84433	301.62418	-12.88663	371.60294	177.30450	1126.04309	-627.59576	-3.68832	594.65485	-354.97565	155.66135	591.15961	-362.47705	36.22730	541.77338	588.77417	193.33334	532.91473	584.15167	
3778	37.770	-113.88256	43.89975	-249.06839	266.23624	123.57959	-232.03522	-98.59885	82.62334	401.73752	301.54581	-13.11214	371.91745	178.63022	1126.02698	-625.90082	-3.58996	595.13751	-354.07770	156.29178	591.04010	-361.17053	36.97778	541.43427	589.73096	194.22588	532.42133	585.36133	
3779	37.780	-113.92752	44.12927	-249.00369	272.02417	113.20499	-226.74313	-94.30607	72.57309	407.05960	300.99271	-13.46779	372.07843	180.48335	1126.10364	-624.29840	-2.80004	595.37665	-353.13373	157.36475	591.19189	-360.50821	37.81931	541.13208	590.86438	194.86874	531.95148	586.48041	
3780	37.790	-114.47260	44.61885	-248.75900	277.82513	102.49457	-221.51283	-90.02253	62.62528	411.55093	300.28546	-13.89347	372.05472	181.36058	1126.56946	-622.99756	-2.22642	595.44153	-352.15988	158.06094	591.19733	-359.44711	38.61056	540.71356	591.60040	195.46017	531.29541	587.27313	
3781	37.800	-115.02447	45.04208	-248.58395	283.42743	92.55265	-217.26768	-85.77169	52.96198	415.74698	300.09695	-14.24646	372.21017	182.06651	1126.70361	-621.93848	-1.74267	595.59039	-351.37994	158.52176	591.34711	-358.71036	39.19001	539.81104	592.66431	196.69379	530.70215	588.27887	
3782	37.810	-115.51422	45.19130	-248.46307	288.39771	82.85172	-213.99951	-83.47890	42.49077	419.45331	300.03903	-14.37257	372.32675	183.13034	1126.83228	-620.83282	-1.16515	595.44287	-350.72745	159.02107	591.30237	-357.92386	39.96796	539.10724	592.90210	196.73999	530.22650	588.73871	
3783	37.820	-115.68040	44.93977	-248.38222	291.92618	73.39942	-213.03316	-80.95982	32.16998	420.55441	299.51007	-14.69637	372.42065	183.39072	1126.70752	-619.61633	-0.60768	595.24646	-350.12622	159.68822	591.43176	-357.39737	40.15685	538.47369	593.57263	197.17143	529.46924	589.56512	
3784	37.830	-116.21516	45.11623	-248.15701	294.63751	65.09097	-213.75882	-80.55651	23.46239	419.45407	298.66403	-14.98219	372.69968	183.64575	1126.98096	-618.61597	0.18069	595.30597	-349.44202	160.16312	591.79047	-356.89700	40.82254	537.26508	594.17120	197.44879	528.90613	590.19421	
3785	37.840	-116.41933	45.40239	-248.06148	296.87134	57.58598	-215.43086	-77.32895	13.90306	417.65149	298.68951	-15.51229	372.81546	182.87529	1127.75171	-617.84851	0.81192	595.53314	-349.03284	160.97214	592.07568	-356.13000	40.96968	536.60242	594.18884	197.54256	528.21643	590.37000	
3786	37.850	-116.95655	45.76781	-247.93021	295.47763	50.50225	-218.80624	-76.16906	6.21666	414.23312	298.18149	-15.91712	372.87708	181.96840	1128.62378	-617.05652	1.23870	596.12262	-348.91449	161.49747	592.57086	-355.92792	41.77083	535.43121	594.38214	197.67894	527.70349	590.40424	
3787	37.860	-117.23122	45.85553	-247.88791	294.86505	45.49492	-222.39899	-75.51618	-0.36123	410.06311	297.38895	-16.18311	372.97845	181.36229	1129.74719	-616.15656	1.93561	596.16876	-348.99576	162.00334	593.32074	-355.88586	42.15261	533.97498	594.06738	197.54678	526.99023	590.25195	
3788	37.870	-117.66302	45.76210	-247.84064	295.30737	44.34142	-223.17599	-74.72286	-6.29599	405.73663	297.09723	-16.37854	373.13617	179.86328	1131.22339	-615.10510	2.28375	596.39270	-349.15662	161.92676	593.74030	-355.89362	42.44505	533.00171	593.98309	197.87280	525.60315	588.38556	
